<svg width="70" height="60" viewBox="0 0 70 60" fill="none" xmlns="http://www.w3.org/2000/svg">
<path d="M21 53.3333H7C5.075 53.3333 3.42708 52.6806 2.05625 51.375C0.685417 50.0694 0 48.5 0 46.6667V6.66667C0 4.83333 0.685417 3.26389 2.05625 1.95833C3.42708 0.652778 5.075 0 7 0H63C64.925 0 66.5729 0.652778 67.9437 1.95833C69.3146 3.26389 70 4.83333 70 6.66667V13.3333H63V6.66667H7V46.6667H31.5V60H24.5C23.5083 60 22.6771 59.6806 22.0063 59.0417C21.3354 58.4028 21 57.6111 21 56.6667V53.3333ZM46.025 45C46.025 42.8333 46.8271 40.9861 48.4312 39.4583C50.0354 37.9306 51.975 37.1667 54.25 37.1667C56.525 37.1667 58.4646 37.9306 60.0687 39.4583C61.6729 40.9861 62.475 42.8333 62.475 45C62.475 47.1667 61.6729 49.0139 60.0687 50.5417C58.4646 52.0694 56.525 52.8333 54.25 52.8333C51.975 52.8333 50.0354 52.0694 48.4312 50.5417C46.8271 49.0139 46.025 47.1667 46.025 45ZM66.5 16.6667C67.4917 16.6667 68.3229 16.9861 68.9938 17.625C69.6646 18.2639 70 19.0556 70 20V56.6667C70 57.6111 69.6646 58.4028 68.9938 59.0417C68.3229 59.6806 67.4917 60 66.5 60H42C41.0083 60 40.1771 59.6806 39.5062 59.0417C38.8354 58.4028 38.5 57.6111 38.5 56.6667V20C38.5 19.0556 38.8354 18.2639 39.5062 17.625C40.1771 16.9861 41.0083 16.6667 42 16.6667H66.5ZM54.25 20C52.7333 20 51.4792 20.4722 50.4875 21.4167C49.4958 22.3611 49 23.5556 49 25C49 26.4444 49.4958 27.6389 50.4875 28.5833C51.4792 29.5278 52.7333 30 54.25 30C55.7667 30 57.0208 29.5278 58.0125 28.5833C59.0042 27.6389 59.5 26.4444 59.5 25C59.5 23.5556 59.0042 22.3611 58.0125 21.4167C57.0208 20.4722 55.7667 20 54.25 20ZM54.25 56.6667C57.6917 56.6667 60.5938 55.5417 62.9562 53.2917C65.3187 51.0417 66.5 48.2778 66.5 45C66.5 41.7222 65.3187 38.9583 62.9562 36.7083C60.5938 34.4583 57.6917 33.3333 54.25 33.3333C50.8083 33.3333 47.9062 34.4583 45.5438 36.7083C43.1812 38.9583 42 41.7222 42 45C42 48.2778 43.1812 51.0417 45.5438 53.2917C47.9062 55.5417 50.8083 56.6667 54.25 56.6667Z" fill="#3F3874"/>
</svg>
